# xmcd CD database file
#
# Track frame offsets:
#	150
#	11437
#	27142
#	43645
#	57117
#	68505
#	80590
#	94527
#	107607
#	123590
#	143300
#	166040
#	201262
#	210087
#
# Disc length: 2967 seconds
#
# Revision: 0
# Processed by: cddbd v1.5.2PL0 Copyright (c) Steve Scherf et al.
# Submitted via: CDex 1.51
#
DISCID=a10b950e
DTITLE=Nat King Cole - Coleção Folha Clássicos do Jazz
DYEAR=2007
DGENRE=Jazz
TTITLE0=Ballerina
TTITLE1=Funny (Not Much)
TTITLE2=The Continental
TTITLE3=I Wish You Love
TTITLE4=You Leave Me Breathless
TTITLE5=Thou Swell
TTITLE6=My Kinda Love
TTITLE7=The Surrey With The Fringe On Top
TTITLE8=Where Or When
TTITLE9=Miss Otis Regrets
TTITLE10=Joe Turner Blues
TTITLE11=Mr. Cole Won`t Rock And Roll
TTITLE12=In A Mellow Tone
TTITLE13=Whatcha` Gonna Do
EXTD=YEAR: 2007
EXTT0=
EXTT1=
EXTT2=
EXTT3=
EXTT4=
EXTT5=
EXTT6=
EXTT7=
EXTT8=
EXTT9=
EXTT10=
EXTT11=
EXTT12=
EXTT13=
PLAYORDER=
